HIERARCHY
ROOT Hips
{
 OFFSET 0.000000 0.000000 0.000000
 CHANNELS 6 Xposition Yposition Zposition Yrotation Xrotation Zrotation
 JOINT Chest
 {
  OFFSET 0.000000 9.585900 0.002600
  CHANNELS 3 Yrotation Xrotation Zrotation
  JOINT Chest2
  {
   OFFSET 0.000000 9.601200 -0.005300
   CHANNELS 3 Yrotation Xrotation Zrotation
   JOINT Chest3
   {
    OFFSET 0.000000 9.561800 0.000000
    CHANNELS 3 Yrotation Xrotation Zrotation
    JOINT Chest4
    {
     OFFSET 0.000000 9.552100 0.000000
     CHANNELS 3 Yrotation Xrotation Zrotation
     JOINT Neck
     {
      OFFSET 0.000000 14.453000 0.000000
      CHANNELS 3 Yrotation Xrotation Zrotation
      JOINT Head
      {
       OFFSET 0.000000 8.936500 -0.011300
       CHANNELS 3 Yrotation Xrotation Zrotation
       End Site
       {
        OFFSET 0.000000 17.073600 -0.006000
       }
      }
     }
     JOINT RightCollar
     {
      OFFSET -2.921100 9.558500 0.000000
      CHANNELS 3 Yrotation Xrotation Zrotation
      JOINT RightShoulder
      {
       OFFSET -13.519700 0.000000 0.000000
       CHANNELS 3 Yrotation Xrotation Zrotation
       JOINT RightElbow
       {
        OFFSET 0.000000 -29.696600 0.000000
        CHANNELS 3 Yrotation Xrotation Zrotation
        JOINT RightWrist
        {
         OFFSET 0.000000 -24.004700 0.000000
         CHANNELS 3 Yrotation Xrotation Zrotation
         End Site
         {
          OFFSET 0.000000 -17.728500 0.000000
         }
        }
       }
      }
     }
     JOINT LeftCollar
     {
      OFFSET 2.921100 9.558500 0.000000
      CHANNELS 3 Yrotation Xrotation Zrotation
      JOINT LeftShoulder
      {
       OFFSET 13.519700 0.000000 0.000000
       CHANNELS 3 Yrotation Xrotation Zrotation
       JOINT LeftElbow
       {
        OFFSET 0.000000 -29.696600 0.000000
        CHANNELS 3 Yrotation Xrotation Zrotation
        JOINT LeftWrist
        {
         OFFSET 0.000000 -24.004700 0.000000
         CHANNELS 3 Yrotation Xrotation Zrotation
         End Site
         {
          OFFSET 0.000000 -17.728500 0.000000
         }
        }
       }
      }
     }
    }
   }
  }
 }
 JOINT RightHip
 {
  OFFSET -7.771700 -0.012900 -0.001300
  CHANNELS 3 Yrotation Xrotation Zrotation
  JOINT RightKnee
  {
   OFFSET 0.000000 -40.869800 0.001200
   CHANNELS 3 Yrotation Xrotation Zrotation
   JOINT RightAnkle
   {
    OFFSET 0.000000 -39.717900 0.002100
    CHANNELS 3 Yrotation Xrotation Zrotation
    JOINT RightToe
    {
     OFFSET 0.000000 -4.965400 11.033500
     CHANNELS 3 Yrotation Xrotation Zrotation
     End Site
     {
      OFFSET 0.000000 -1.423100 5.872300
     }
    }
   }
  }
 }
 JOINT LeftHip
 {
  OFFSET 7.771700 -0.012900 -0.001300
  CHANNELS 3 Yrotation Xrotation Zrotation
  JOINT LeftKnee
  {
   OFFSET 0.000000 -40.869800 0.001200
   CHANNELS 3 Yrotation Xrotation Zrotation
   JOINT LeftAnkle
   {
    OFFSET 0.000000 -39.717900 0.002100
    CHANNELS 3 Yrotation Xrotation Zrotation
    JOINT LeftToe
    {
     OFFSET 0.000000 -4.965400 11.033500
     CHANNELS 3 Yrotation Xrotation Zrotation
     End Site
     {
      OFFSET 0.000000 -1.423100 5.872300
     }
    }
   }
  }
 }
}
MOTION
Frames: 16
Frame Time: 0.008333
-101.914029 57.247326 -2.234765 161.738701 -7.156746 0.745733 2.530805 5.806775 0.790265 0.089726 0.210406 -0.006490 0.151341 0.382689 -0.001956 2.202869 5.585376 0.076296 1.583595 18.232274 -1.324168 3.321451 -1.826944 -2.930116 0.597739 8.532149 1.672305 -17.047995 -7.715931 -4.155835 -84.316716 -81.977469 92.365226 -7.743949 1.833568 -28.935836 -4.439606 8.430462 -1.510090 29.054975 -4.914683 -6.519160 113.862590 -79.129421 -115.739657 -5.285721 10.474984 -2.592601 -20.503390 -64.835478 10.673492 -30.209630 74.146580 -29.468456 -0.372476 -7.262109 -4.300807 -0.206847 0.769634 -0.091655 1.014132 -67.708588 12.687570 43.358482 62.033582 35.809309 -17.515386 -7.973468 5.467152 -0.264694 -0.978741 -0.092628
-101.916590 57.250099 -2.233843 161.739154 -7.110715 0.741939 2.535463 5.752043 0.786931 0.092710 0.204350 -0.011589 0.149187 0.380475 0.000549 2.221712 5.510749 0.066050 1.581686 18.270035 -1.311584 3.321009 -1.787401 -2.915456 0.574257 8.609642 1.692776 -17.041842 -7.746322 -4.148847 -84.354603 -81.994730 92.417074 -7.726430 1.853758 -28.901034 -4.475128 8.501578 -1.510540 29.068115 -4.913206 -6.517719 113.878884 -79.100716 -115.773958 -5.285715 10.449632 -2.622931 -20.541735 -64.876315 10.721575 -30.206432 74.142768 -29.465014 -0.383583 -7.255786 -4.306233 -0.199043 0.764692 -0.085744 1.044367 -67.754093 12.673519 43.341058 62.035735 35.784114 -17.521616 -7.965661 5.472074 -0.280153 -0.987776 -0.091334
-101.920072 57.253812 -2.233210 161.731703 -7.061829 0.746345 2.549650 5.694032 0.771617 0.091479 0.204869 -0.009115 0.145318 0.384404 0.005798 2.230218 5.483567 0.062049 1.584926 18.265026 -1.311467 3.321551 -1.771818 -2.906859 0.512776 8.576727 1.700616 -16.995063 -7.734949 -4.161991 -84.256935 -82.013282 92.330250 -7.704208 1.871635 -28.850399 -4.512411 8.512552 -1.527895 29.089820 -4.935339 -6.535082 113.799821 -79.094453 -115.707038 -5.322297 10.453605 -2.619781 -20.561920 -64.920771 10.755952 -30.203113 74.133632 -29.459282 -0.393458 -7.248639 -4.314375 -0.185703 0.760285 -0.079980 1.101598 -67.800351 12.637275 43.341896 62.032473 35.771629 -17.525924 -7.955622 5.484237 -0.307525 -1.000573 -0.096561
-101.922807 57.258491 -2.234566 161.729124 -7.025109 0.751389 2.559833 5.649314 0.755658 0.085608 0.210258 -0.001392 0.151049 0.370992 -0.002210 2.238556 5.437933 0.068268 1.576115 18.314417 -1.305733 3.333819 -1.822917 -2.919178 0.475243 8.612367 1.705367 -16.987417 -7.765280 -4.153735 -84.046050 -82.029570 92.133605 -7.637722 1.853473 -28.722867 -4.536838 8.576112 -1.531281 29.093414 -4.954423 -6.554385 113.740583 -79.073688 -115.654718 -5.242241 10.343974 -2.736730 -20.576442 -64.954605 10.776312 -30.193560 74.130024 -29.449878 -0.400131 -7.240559 -4.314610 -0.180987 0.749780 -0.080428 1.190753 -67.828324 12.583397 43.352311 62.019215 35.754422 -17.555403 -7.951862 5.504001 -0.291394 -0.997929 -0.099589
-101.923469 57.263605 -2.236057 161.729295 -6.994344 0.746520 2.568107 5.612838 0.756120 0.085296 0.207853 -0.001168 0.151402 0.353609 -0.001354 2.235330 5.412314 0.076906 1.580284 18.323975 -1.310997 3.327385 -1.816848 -2.919955 0.435938 8.635449 1.693205 -16.977291 -7.794762 -4.136816 -83.676067 -82.044539 91.785751 -7.602341 1.838394 -28.671896 -4.554542 8.641639 -1.537060 29.098004 -4.982009 -6.584113 113.703577 -79.080863 -115.611977 -5.169521 10.260692 -2.838540 -20.606719 -64.976210 10.816328 -30.188210 74.121838 -29.446716 -0.412921 -7.235026 -4.314139 -0.171967 0.745035 -0.078459 1.198171 -67.855834 12.586129 43.377603 62.010149 35.759260 -17.542377 -7.934613 5.522235 -0.303464 -1.013299 -0.108572
-101.923621 57.268831 -2.238698 161.734609 -6.974143 0.742262 2.565415 5.584479 0.757720 0.085295 0.195785 0.003438 0.149659 0.367217 -0.003678 2.228593 5.386094 0.086291 1.584847 18.317740 -1.321647 3.325915 -1.794998 -2.920729 0.394932 8.640313 1.669892 -16.963685 -7.822142 -4.111783 -83.535116 -82.072910 91.666229 -7.576010 1.854062 -28.633512 -4.559908 8.696886 -1.539391 29.094039 -5.014762 -6.618715 113.590722 -79.044388 -115.502027 -5.171431 10.197900 -2.925683 -20.623595 -64.989093 10.837174 -30.179925 74.119697 -29.435064 -0.435263 -7.235359 -4.318184 -0.155811 0.739087 -0.073096 1.201848 -67.873603 12.586543 43.400362 62.003676 35.760046 -17.506658 -7.911849 5.521527 -0.355133 -1.038808 -0.096717
-101.920512 57.273676 -2.240916 161.737958 -6.961947 0.720737 2.566390 5.563349 0.782124 0.080115 0.191913 0.005255 0.152952 0.372932 -0.006792 2.213200 5.364211 0.096976 1.579816 18.290550 -1.322880 3.339051 -1.754528 -2.938393 0.387996 8.659458 1.649610 -16.961704 -7.839941 -4.096457 -83.786467 -82.108686 91.897217 -7.583906 1.907783 -28.594530 -4.548191 8.733672 -1.548611 29.085569 -5.029391 -6.634669 113.509101 -79.004238 -115.422114 -5.192873 10.123235 -3.045472 -20.673955 -64.989418 10.891480 -30.193569 74.115816 -29.443419 -0.434509 -7.222949 -4.321903 -0.156680 0.721073 -0.071976 1.237562 -67.880964 12.597213 43.320735 62.018257 35.687008 -17.555007 -7.915236 5.507588 -0.289248 -1.023930 -0.069794
-101.918808 57.277880 -2.244478 161.746801 -6.960096 0.710407 2.555603 5.550452 0.796852 0.079167 0.188945 0.004087 0.151829 0.372883 -0.004773 2.202309 5.357791 0.099645 1.585103 18.299860 -1.329332 3.331150 -1.768588 -2.948691 0.380571 8.672061 1.632453 -16.959121 -7.857331 -4.080702 -83.924741 -82.148111 92.004091 -7.555368 1.911563 -28.539111 -4.532156 8.761035 -1.550941 29.050785 -5.057005 -6.649457 113.455662 -78.982275 -115.336896 -5.231992 10.036235 -3.201760 -20.693507 -64.984130 10.909087 -30.215197 74.114359 -29.458029 -0.445753 -7.223662 -4.329648 -0.148385 0.709045 -0.066470 1.252963 -67.881714 12.599078 43.287384 62.028278 35.652646 -17.572971 -7.904718 5.499530 -0.272915 -1.027957 -0.059052
-101.919104 57.281164 -2.249051 161.777335 -6.966249 0.711414 2.520536 5.533336 0.798247 0.081295 0.198460 0.000547 0.145807 0.370345 -0.001794 2.204131 5.367360 0.097104 1.582223 18.296524 -1.329313 3.336768 -1.760006 -2.954064 0.293127 8.640924 1.578257 -16.908655 -7.852207 -4.026214 -83.834100 -82.199366 91.893201 -7.536112 1.910945 -28.488206 -4.479433 8.759220 -1.514070 28.968301 -5.054689 -6.658707 113.455099 -78.964877 -115.296157 -5.278042 9.935818 -3.392701 -20.679095 -64.974386 10.865558 -30.221656 74.120725 -29.448546 -0.459909 -7.250940 -4.336028 -0.136580 0.719610 -0.061859 1.279463 -67.875256 12.567709 43.306983 62.026496 35.640567 -17.580485 -7.885424 5.523814 -0.328822 -1.041685 -0.068464
-101.917473 57.283140 -2.251433 161.786131 -6.968966 0.699895 2.513323 5.532214 0.809331 0.079566 0.188731 0.002256 0.147413 0.368273 -0.001620 2.191158 5.360377 0.103031 1.580935 18.305240 -1.334721 3.335733 -1.743669 -2.963271 0.259626 8.644059 1.535143 -16.922686 -7.898854 -3.961593 -83.483942 -82.256230 91.529784 -7.512166 1.897753 -28.440910 -4.403269 8.769886 -1.483069 28.868809 -5.042336 -6.634032 113.784098 -78.944436 -115.597144 -5.293512 9.878732 -3.608739 -20.687973 -64.966003 10.868176 -30.224067 74.122207 -29.440789 -0.456764 -7.252901 -4.337001 -0.140371 0.715738 -0.063337 1.287651 -67.873458 12.574689 43.277975 62.035514 35.611731 -17.588316 -7.878367 5.509420 -0.323613 -1.039873 -0.057824
-101.916454 57.283947 -2.253298 161.796264 -6.973013 0.689737 2.500645 5.523939 0.819596 0.082598 0.190997 0.002779 0.142764 0.364042 -0.001197 2.167838 5.330243 0.117299 1.586147 18.336065 -1.348981 3.302176 -1.730943 -2.977453 0.239202 8.670197 1.478028 -16.911277 -7.921160 -3.920043 -83.263098 -82.282422 91.285016 -7.466624 1.853381 -28.410397 -4.313011 8.814207 -1.464793 28.772170 -5.042694 -6.572200 113.994726 -78.892456 -115.786498 -5.336304 9.812129 -3.866160 -20.702245 -64.958230 10.874209 -30.225513 74.125477 -29.435996 -0.455295 -7.254599 -4.338384 -0.143462 0.712895 -0.063890 1.297461 -67.870421 12.576097 43.250898 62.042844 35.585493 -17.595049 -7.876696 5.501012 -0.311009 -1.030738 -0.054218
-101.918182 57.283655 -2.254777 161.810665 -6.974535 0.692203 2.488043 5.513131 0.818508 0.080689 0.200093 0.000681 0.142499 0.353138 0.001348 2.160064 5.319773 0.117628 1.573781 18.347336 -1.350425 3.292685 -1.729861 -2.987538 0.200092 8.679475 1.440977 -16.878249 -7.928166 -3.896520 -83.085702 -82.286600 91.098915 -7.426556 1.800806 -28.399978 -4.244805 8.853339 -1.436282 28.698592 -5.066188 -6.462903 114.153170 -78.806735 -115.951322 -5.405465 9.758773 -4.166364 -20.695875 -64.958267 10.851945 -30.215140 74.133116 -29.419000 -0.462685 -7.267790 -4.340846 -0.138597 0.718906 -0.063233 1.324046 -67.869396 12.548611 43.248737 62.044576 35.569652 -17.593202 -7.872758 5.519889 -0.290212 -1.017954 -0.075412
-101.920448 57.282720 -2.257934 161.838941 -6.988710 0.696911 2.467693 5.512003 0.810266 0.080148 0.199180 0.000821 0.141575 0.351680 0.001808 2.146008 5.315953 0.116231 1.571100 18.346622 -1.348197 3.274055 -1.735397 -2.987955 0.167168 8.688447 1.426597 -16.841363 -7.970792 -3.910730 -83.123952 -82.312038 90.996023 -7.435927 1.815313 -28.263097 -4.209657 8.884779 -1.421799 28.693010 -5.111771 -6.288841 114.227926 -78.693965 -116.070269 -5.505998 9.721673 -4.520741 -20.657488 -64.950009 10.779621 -30.177573 74.151708 -29.367774 -0.465197 -7.290018 -4.332162 -0.157382 0.729499 -0.070981 1.324414 -67.856324 12.523000 43.271486 62.041019 35.574549 -17.571428 -7.870004 5.526577 -0.314057 -1.017494 -0.075987
-101.923386 57.281017 -2.259557 161.844595 -6.995469 0.702895 2.460018 5.506179 0.798876 0.077569 0.192769 -0.008662 0.142974 0.356114 0.011560 2.143820 5.318625 0.115988 1.560034 18.333893 -1.347107 3.262244 -1.751807 -2.982636 0.148045 8.696437 1.439603 -16.819615 -8.061875 -3.978418 -82.905617 -82.303173 90.668582 -7.441406 1.822245 -28.143436 -4.180557 8.909312 -1.410455 28.740108 -5.188054 -6.055343 114.241911 -78.561553 -116.181045 -5.632093 9.704902 -4.931263 -20.632883 -64.948672 10.746587 -30.174144 74.158284 -29.360110 -0.466412 -7.299653 -4.329024 -0.163677 0.734934 -0.073508 1.376835 -67.854975 12.481473 43.304886 62.043719 35.587585 -17.573310 -7.871882 5.549568 -0.339505 -1.014479 -0.088712
-101.921900 57.278988 -2.260377 161.837971 -7.007682 0.681496 2.465027 5.510659 0.811834 0.082016 0.198542 -0.009814 0.138377 0.349298 0.012843 2.147171 5.322986 0.123451 1.532962 18.297694 -1.357721 3.269278 -1.748948 -2.971211 0.140428 8.716526 1.476349 -16.823483 -8.192686 -4.103757 -82.709255 -82.279000 90.388837 -7.439836 1.841772 -28.025748 -4.212506 8.993077 -1.505417 28.888528 -5.405321 -5.701601 114.198065 -78.408884 -116.297952 -5.777488 9.699669 -5.386503 -20.655769 -64.932152 10.779172 -30.167742 74.164533 -29.351700 -0.460342 -7.296710 -4.324424 -0.178316 0.729587 -0.079231 1.399347 -67.852188 12.507240 43.269967 62.068105 35.558287 -17.607405 -7.885735 5.539453 -0.304462 -0.998190 -0.084103
-101.922257 57.276881 -2.261986 161.837444 -7.022181 0.669571 2.468918 5.523372 0.814738 0.081339 0.204544 -0.012346 0.138645 0.343265 0.015365 2.144306 5.322708 0.123849 1.527317 18.287993 -1.355010 3.251962 -1.795226 -2.964055 0.140854 8.761285 1.540814 -16.851748 -8.390351 -4.299896 -82.485575 -82.240266 90.095159 -7.428107 1.881733 -27.890246 -4.255553 9.063193 -1.587317 29.107352 -5.652856 -5.270554 114.083145 -78.238184 -116.414181 -5.936276 9.689539 -5.869598 -20.666491 -64.915935 10.791753 -30.151409 74.172014 -29.335182 -0.467125 -7.303369 -4.324087 -0.180309 0.732665 -0.079787 1.392593 -67.843811 12.530909 43.273316 62.080360 35.557476 -17.611837 -7.895503 5.541023 -0.295462 -0.993099 -0.084581
